PathFileType	4	(X/Y/Z)	./resultDataOpenSim/trcMotMarkerGrf/sub06/qtm-01-05.trc
DataRate	CameraRate	NumFrames	NumMarkers	Units	OrigDataRate	OrigDataStartFrame	OrigNumFrames
250.000000	250.000000	13	24	m	250.000000	63	503
Frame#	Time	L.Toe.Tip			R.Toe.Tip			L.Ankle.Lat			R.Ankle.Lat			L.Ankle.Med			R.Ankle.Med			L.Heel			R.Heel			L.Knee.Lat			R.Knee.Lat			L.Knee.Med			R.Knee.Med			L.Thigh.Upper			R.Thigh.Upper			L.ASIS			R.ASIS			V.Sacral			L.Acromium			R.Acromium			C7			L.Elbow			R.Elbow			L.Wrist.Lat			R.Wrist.Lat
		X1	Y1	Z1	X2	Y2	Z2	X3	Y3	Z3	X4	Y4	Z4	X5	Y5	Z5	X6	Y6	Z6	X7	Y7	Z7	X8	Y8	Z8	X9	Y9	Z9	X10	Y10	Z10	X11	Y11	Z11	X12	Y12	Z12	X13	Y13	Z13	X14	Y14	Z14	X15	Y15	Z15	X16	Y16	Z16	X17	Y17	Z17	X18	Y18	Z18	X19	Y19	Z19	X20	Y20	Z20	X21	Y21	Z21	X22	Y22	Z22	X23	Y23	Z23	X24	Y24	Z24

63	0.248	-1.4818997	0.05653373	-0.093942873	-0.75833816	0.036025757	0.055389995	-1.462583	0.18600862	-0.13432534	-0.88970207	0.061311802	0.083188283	-1.4460159	0.1894247	-0.052505437	-0.87934716	0.079613345	-0.0057373262	-1.5009105	0.24825658	-0.090980175	-0.95008526	0.037492239	0.022684089	-1.1277908	0.37547893	-0.15145018	-0.85938402	0.44706518	0.1055982	-1.1259407	0.36029536	-0.034023237	-0.90862339	0.42943105	-0.01293393	-1.0795042	0.76183829	-0.16122633	-1.0222384	0.78570411	0.18154771	-0.99354366	0.81009804	-0.12598808	-0.9483122	0.83493398	0.110507	-1.1602	0.90068042	0.019558089	-1.0222539	1.3062428	-0.17441683	-1.0290684	1.2844289	0.18835767	-1.1012307	1.3373384	0.0055372599	-1.0409134	0.98156551	-0.22723063	-1.1628674	0.99875589	0.22400238	-0.8498223	0.82488587	-0.22043423	-1.1079072	0.77179332	0.28120882
64	0.252	-1.4728257	0.05931262	-0.095197407	-0.75823945	0.035878729	0.055362627	-1.451874	0.18884931	-0.13447084	-0.8896386	0.061226335	0.083137977	-1.434479	0.19179253	-0.052801766	-0.87908449	0.079730688	-0.005665266	-1.4885504	0.25138496	-0.090071436	-0.95008693	0.037522378	0.022743717	-1.1159076	0.37564019	-0.15254453	-0.85605959	0.44675803	0.10655832	-1.1135992	0.35990103	-0.035027632	-0.90479073	0.42960549	-0.012497147	-1.0726953	0.76308686	-0.16078271	-1.0152318	0.7868456	0.18214347	-0.98696136	0.81126124	-0.12544821	-0.94138458	0.83573176	0.11138863	-1.15356	0.90185692	0.020614585	-1.0161171	1.3072536	-0.17419393	-1.0223272	1.28547	0.18866657	-1.0948028	1.3386086	0.0060265914	-1.0357652	0.98275275	-0.22606244	-1.1552042	0.99915469	0.22510527	-0.84655732	0.82397259	-0.22052061	-1.0980878	0.77255021	0.28203103
65	0.256	-1.4627418	0.06210123	-0.096384888	-0.7581589	0.035754766	0.055354112	-1.4409644	0.19163301	-0.13456775	-0.88969417	0.061231472	0.08304567	-1.4228196	0.19419443	-0.053038361	-0.87881426	0.079853798	-0.0055864855	-1.4770213	0.25410519	-0.088779936	-0.95008477	0.037553781	0.022791004	-1.1040103	0.37594487	-0.15365407	-0.85315724	0.44647538	0.10759808	-1.1012922	0.35981363	-0.03597308	-0.90124731	0.42984831	-0.011988038	-1.0658592	0.76441724	-0.16001786	-1.0074063	0.78810786	0.18301643	-0.98039456	0.81251199	-0.12486958	-0.93529626	0.83644749	0.1120983	-1.1468231	0.90314103	0.021470194	-1.0100166	1.3083124	-0.17399122	-1.0155986	1.2865512	0.18895798	-1.08837	1.3399418	0.0065272921	-1.0306632	0.98397707	-0.22496641	-1.1475935	0.99953648	0.22613552	-0.8433596	0.82312706	-0.22062424	-1.08816	0.77336894	0.28281807
66	0.26	-1.4516909	0.064776505	-0.097450278	-0.75809511	0.035653479	0.055364826	-1.4298488	0.19433815	-0.13461442	-0.88981536	0.061288561	0.082947354	-1.4116179	0.19650379	-0.052994099	-0.87853488	0.079970528	-0.005505569	-1.4661738	0.25651228	-0.087480426	-0.95008014	0.037589773	0.022823393	-1.0920694	0.3764188	-0.15477505	-0.85062471	0.44612608	0.10856695	-1.088932	0.36003606	-0.036872085	-0.89800881	0.43014585	-0.011346751	-1.0589983	0.7657941	-0.15903808	-1.0002249	0.78924319	0.18376812	-0.97386616	0.81383086	-0.12427251	-0.92977049	0.83712862	0.112701	-1.1399101	0.9045254	0.02240626	-1.0039584	1.3094173	-0.17380354	-1.0089005	1.2876909	0.1892345	-1.0819438	1.341327	0.0070304095	-1.0256108	0.98523964	-0.22394342	-1.1400351	0.99991537	0.22707576	-0.84023813	0.8223551	-0.22074093	-1.0781605	0.7742496	0.2835797
67	0.264	-1.4397188	0.067257447	-0.098372759	-0.75804587	0.035573701	0.055385793	-1.4185091	0.19694702	-0.13461209	-0.88992826	0.061346635	0.082875905	-1.4011369	0.19865366	-0.052591686	-0.8782585	0.08006998	-0.0054287839	-1.4555579	0.25872145	-0.086431583	-0.95007435	0.037630675	0.022839353	-1.0800324	0.37706561	-0.15588331	-0.84826093	0.44568179	0.10937986	-1.076484	0.36054931	-0.037730951	-0.89508987	0.43048036	-0.010505924	-1.0521777	0.76717646	-0.15809279	-0.99477839	0.79006095	0.18410412	-0.96742349	0.81519291	-0.12368661	-0.92425175	0.83785689	0.11333125	-1.1327734	0.9059888	0.02377321	-0.99796046	1.3105774	-0.17362045	-1.0022563	1.28891	0.18950561	-1.0755361	1.3427583	0.0075233655	-1.0206031	0.98653873	-0.22298108	-1.1324499	1.0003401	0.22798688	-0.8372009	0.82166375	-0.22086832	-1.0681185	0.77519162	0.28432441
68	0.268	-1.4269135	0.069525251	-0.099166796	-0.75801139	0.035512212	0.055411684	-1.4069336	0.19944794	-0.13456392	-0.8899986	0.061369833	0.082836429	-1.3908104	0.2007664	-0.052058226	-0.8780043	0.08014498	-0.0053621697	-1.4448136	0.26081047	-0.085767581	-0.95006916	0.037674975	0.022844454	-1.0678843	0.37787126	-0.15693219	-0.84591754	0.44517403	0.11005303	-1.0639866	0.36132155	-0.038540746	-0.89243315	0.43083803	-0.0095167078	-1.0454486	0.76854577	-0.15736831	-0.99054718	0.79065316	0.18416528	-0.96112813	0.81657229	-0.12315316	-0.9184935	0.83866975	0.11405108	-1.1254717	0.90747735	0.025539656	-0.99203857	1.311804	-0.17343219	-0.99568258	1.2902161	0.1897788	-1.0691595	1.3442349	0.007994633	-1.0156369	0.98788311	-0.22206864	-1.1247488	1.0008603	0.22895143	-0.8342474	0.82106414	-0.22100377	-1.0580271	0.77620854	0.28506543
69	0.272	-1.4134224	0.07159384	-0.099874134	-0.75799627	0.035465456	0.055443524	-1.3951235	0.20183218	-0.13447938	-0.89003769	0.061345474	0.082818626	-1.3794465	0.20306936	-0.051810895	-0.87779293	0.080196173	-0.0053057502	-1.4337884	0.26275725	-0.085512836	-0.95006834	0.037721301	0.022851938	-1.0556523	0.37882716	-0.15789004	-0.84358967	0.44463102	0.11063186	-1.0515289	0.36230945	-0.039274836	-0.88989673	0.4312102	-0.0085818934	-1.0387968	0.76990966	-0.15685835	-0.98624949	0.79126365	0.18428245	-0.95500499	0.81795407	-0.12270735	-0.91258036	0.8395551	0.11484302	-1.1181696	0.90890165	0.027018072	-0.9861919	1.3130985	-0.17323518	-0.98918	1.2916012	0.19005204	-1.0628257	1.345749	0.0084352178	-1.0107135	0.98929432	-0.22119999	-1.1169237	1.0014887	0.22999381	-0.8313698	0.82056535	-0.22114334	-1.0478487	0.77732965	0.28581746
70	0.276	-1.3994168	0.073462911	-0.10053402	-0.75800757	0.035431538	0.055485354	-1.3830816	0.20407636	-0.13437355	-0.89007443	0.06128061	0.082817505	-1.3662514	0.20564762	-0.052100283	-0.87764027	0.080232621	-0.0052505571	-1.4224968	0.26446117	-0.085461185	-0.95007618	0.03776943	0.022871618	-1.0434174	0.3799294	-0.15877146	-0.84133951	0.44407753	0.11115438	-1.0391612	0.36345977	-0.039923271	-0.88738218	0.43158787	-0.0078728873	-1.0321821	0.77129407	-0.1564551	-0.98137996	0.792024	0.18457205	-0.94898192	0.81934888	-0.12232964	-0.90666047	0.84049237	0.11567682	-1.1110041	0.91016296	0.02721062	-0.98040423	1.314456	-0.17303076	-0.98274288	1.2930577	0.19031898	-1.056542	1.3472811	0.0088399334	-1.0058389	0.99079067	-0.22037185	-1.1090354	1.0022121	0.23108497	-0.82856293	0.82017057	-0.22128609	-1.0375775	0.77857622	0.28657616
71	0.28	-1.3850355	0.075113228	-0.10115013	-0.7580506	0.035409786	0.05553985	-1.370793	0.20613145	-0.1342601	-0.89013843	0.061195665	0.082836615	-1.3517943	0.20826921	-0.052711227	-0.87755144	0.080268286	-0.005182672	-1.4110109	0.26583233	-0.085307062	-0.95009545	0.03782024	0.022901892	-1.0313127	0.38116756	-0.15962189	-0.83924636	0.4435527	0.11166959	-1.0268244	0.36474384	-0.040531238	-0.88491704	0.431955	-0.0073771521	-1.0255913	0.7727309	-0.15607417	-0.97619366	0.79293486	0.18498039	-0.94292742	0.82078294	-0.12194438	-0.90081509	0.84147971	0.1165428	-1.1040213	0.91124838	0.02578808	-0.97465752	1.3158729	-0.17281978	-0.97637	1.2945852	0.19057694	-1.0503128	1.3488145	0.0092116384	-1.0010188	0.99237406	-0.21957689	-1.1011446	1.0030188	0.23219267	-0.82582805	0.81988147	-0.22143638	-1.0272502	0.77995338	0.28731346
72	0.284	-1.3703628	0.076533094	-0.10169913	-0.75812588	0.035398866	0.055607058	-1.3582272	0.20793646	-0.13415038	-0.89025222	0.061114681	0.0828834	-1.3374419	0.21054909	-0.053188936	-0.87752029	0.080316303	-0.0050898416	-1.399348	0.26684564	-0.084944491	-0.95012608	0.037874572	0.022936927	-1.0193955	0.38253649	-0.1604622	-0.83736769	0.44309144	0.1122178	-1.0144183	0.36619012	-0.04117458	-0.88254308	0.43228715	-0.007007396	-1.0190343	0.77424074	-0.15567614	-0.97082225	0.79397556	0.18552393	-0.93678864	0.82227139	-0.12150255	-0.89505907	0.84252085	0.11744372	-1.0973545	0.91234003	0.023812928	-0.96894197	1.3173471	-0.17260088	-0.97005747	1.2961826	0.19082739	-1.0441405	1.3503444	0.0095597129	-0.9962528	0.99403464	-0.21879615	-1.0932802	1.0039019	0.23329981	-0.8231666	0.8197006	-0.2216006	-1.0168797	0.78146839	0.28800806
73	0.288	-1.3554708	0.077728447	-0.10219658	-0.75822729	0.035395667	0.055686648	-1.345382	0.20943097	-0.13404271	-0.89042432	0.061053659	0.08296459	-1.3239205	0.21227774	-0.053329109	-0.87753527	0.080384485	-0.0049666171	-1.3874731	0.2675283	-0.084465345	-0.95016436	0.037932796	0.022977227	-1.0075694	0.38404347	-0.16126217	-0.83569138	0.44271367	0.11280327	-1.0019529	0.3678516	-0.041866042	-0.88021828	0.4325655	-0.0067568211	-1.0125117	0.77582699	-0.15525051	-0.9650817	0.79512535	0.18627587	-0.93063454	0.82381465	-0.12102615	-0.88937018	0.84360248	0.11837671	-1.0913752	0.91371471	0.022974748	-0.96325602	1.3188754	-0.17237268	-0.96379079	1.2978431	0.19107106	-1.0380235	1.351874	0.0098933017	-0.99153496	0.99576179	-0.21799751	-1.0854438	1.0048535	0.23439744	-0.82057561	0.8196277	-0.22178331	-1.00644	0.78312793	0.28866248
74	0.292	-1.3404488	0.07871025	-0.10272255	-0.75834239	0.035396905	0.055778495	-1.332304	0.21057852	-0.133912	-0.89064706	0.061016051	0.083079994	-1.3110054	0.21349369	-0.053239142	-0.87758388	0.080474817	-0.0048153827	-1.3753691	0.26792784	-0.083973351	-0.95020358	0.037996297	0.023027526	-0.99571423	0.38569032	-0.1619812	-0.83415962	0.4424274	0.11341079	-0.98960672	0.36972017	-0.042470519	-0.87789196	0.43279667	-0.0066591083	-1.0060082	0.77748543	-0.15480274	-0.95887633	0.79634645	0.18721643	-0.92450409	0.82541974	-0.12055091	-0.88372067	0.84470498	0.11933375	-1.0863338	0.91545768	0.023936283	-0.95759867	1.3204516	-0.17213376	-0.95754971	1.2995574	0.19130551	-1.0319546	1.3534088	0.010215891	-0.98685988	0.99754763	-0.21715346	-1.0776175	1.0058633	0.23548353	-0.81804424	0.81965838	-0.22198399	-0.99591054	0.78491775	0.28928115
75	0.296	-1.3253541	0.079479149	-0.10334049	-0.75845695	0.03540094	0.055880481	-1.3190505	0.21139754	-0.13373724	-0.89089712	0.060997999	0.083220116	-1.2981515	0.21433477	-0.053086749	-0.8776523	0.080585721	-0.0046425431	-1.3630578	0.26808445	-0.083512642	-0.95023666	0.03806866	0.023088526	-0.98380547	0.38746747	-0.1626089	-0.83271433	0.44222466	0.11401669	-0.97757793	0.37168093	-0.04278446	-0.87560947	0.43300502	-0.0066463909	-0.99950846	0.77921225	-0.15435235	-0.95257051	0.79757125	0.18817578	-0.91828188	0.82710596	-0.12007285	-0.87809794	0.84582382	0.12031236	-1.0817985	0.91737517	0.025847178	-0.95196477	1.3220665	-0.17188256	-0.9513227	1.3013158	0.19152869	-1.0259249	1.3549539	0.010522808	-0.98223732	0.99938861	-0.21630363	-1.0697647	1.0069192	0.23657474	-0.81555455	0.81978937	-0.22219928	-0.98529948	0.7868076	0.28985885
